<svg width="61" height="60" viewBox="0 0 61 60" fill="none" xmlns="http://www.w3.org/2000/svg">
<rect width="60.1583" height="60" rx="8" fill="#2772FF" fill-opacity="0.25"/>
<path d="M29.32 30.324C29.32 31.836 29.156 33.152 28.828 34.272C28.508 35.384 28.06 36.304 27.484 37.032C26.916 37.76 26.24 38.304 25.456 38.664C24.68 39.016 23.84 39.192 22.936 39.192C22.032 39.192 21.192 39.016 20.416 38.664C19.648 38.304 18.98 37.76 18.412 37.032C17.844 36.304 17.4 35.384 17.08 34.272C16.76 33.152 16.6 31.836 16.6 30.324C16.6 28.804 16.76 27.488 17.08 26.376C17.4 25.264 17.844 24.344 18.412 23.616C18.98 22.888 19.648 22.348 20.416 21.996C21.192 21.636 22.032 21.456 22.936 21.456C23.84 21.456 24.68 21.636 25.456 21.996C26.24 22.348 26.916 22.888 27.484 23.616C28.06 24.344 28.508 25.264 28.828 26.376C29.156 27.488 29.32 28.804 29.32 30.324ZM26.26 30.324C26.26 29.068 26.168 28.028 25.984 27.204C25.8 26.38 25.552 25.724 25.24 25.236C24.936 24.748 24.584 24.408 24.184 24.216C23.784 24.016 23.368 23.916 22.936 23.916C22.512 23.916 22.1 24.016 21.7 24.216C21.308 24.408 20.96 24.748 20.656 25.236C20.352 25.724 20.108 26.38 19.924 27.204C19.748 28.028 19.66 29.068 19.66 30.324C19.66 31.58 19.748 32.62 19.924 33.444C20.108 34.268 20.352 34.924 20.656 35.412C20.96 35.9 21.308 36.244 21.7 36.444C22.1 36.636 22.512 36.732 22.936 36.732C23.368 36.732 23.784 36.636 24.184 36.444C24.584 36.244 24.936 35.9 25.24 35.412C25.552 34.924 25.8 34.268 25.984 33.444C26.168 32.62 26.26 31.58 26.26 30.324ZM41.2259 32.46H43.4099V34.176C43.4099 34.336 43.3579 34.476 43.2539 34.596C43.1499 34.708 42.9979 34.764 42.7979 34.764H41.2259V39H38.6339V34.764H31.3139C31.1139 34.764 30.9379 34.704 30.7859 34.584C30.6339 34.456 30.5379 34.3 30.4979 34.116L30.1979 32.616L38.4179 21.636H41.2259V32.46ZM38.6339 26.784C38.6339 26.528 38.6419 26.252 38.6579 25.956C38.6739 25.66 38.7019 25.352 38.7419 25.032L33.3539 32.46H38.6339V26.784Z" fill="#2772FF"/>
</svg>
